<?xml version="1.0" encoding="UTF-8" standalone="no"?>
<!DOCTYPE svg PUBLIC "-//W3C//DTD SVG 1.1//EN" "http://www.w3.org/Graphics/SVG/1.1/DTD/svg11.dtd">
<svg width="100%" height="100%" viewBox="0 0 1066 466" version="1.1" xmlns="http://www.w3.org/2000/svg" xmlns:xlink="http://www.w3.org/1999/xlink" xml:space="preserve" xmlns:serif="http://www.serif.com/" style="fill-rule:evenodd;clip-rule:evenodd;stroke-linejoin:round;stroke-miterlimit:2;">
    <g transform="matrix(1,0,0,1,-16792,-1502)">
        <g id="Dark" transform="matrix(0.80928,0,0,0.80928,17325,1734.72)">
            <g transform="matrix(1,0,0,1,-658.61,-287.57)">
                <clipPath id="_clip1">
                    <rect x="0" y="0" width="1317.22" height="575.14"/>
                </clipPath>
                <g clip-path="url(#_clip1)">
                    <g id="Layer_2">
                        <g id="Layer_5">
                            <g id="Layer_2-2">
                                <path d="M384.55,236.87C423.42,236.858 459.402,257.865 478.5,291.72C464.141,247.322 422.527,217.045 375.865,217.045C316.689,217.045 267.995,265.739 267.995,324.915C267.995,343.482 272.788,361.738 281.91,377.91C278.473,367.227 276.722,356.073 276.722,344.85C276.722,285.678 325.378,236.972 384.55,236.91L384.55,236.87Z" style="fill:rgb(45,45,45);fill-rule:nonzero;"/>
                                <path d="M710.29,280.94C710.398,281.143 710.491,281.354 710.57,281.57L710.4,280.71C710.367,280.789 710.331,280.865 710.29,280.94Z" style="fill:rgb(45,45,45);fill-rule:nonzero;"/>
                                <path d="M995,356.72C995.1,354.91 995.18,353.08 995.18,351.23C995.177,345.564 994.651,339.91 993.61,334.34C989.975,315.124 980.203,297.596 965.77,284.4C975.31,297.158 980.468,312.667 980.468,328.598C980.468,366.204 951.724,398.101 914.32,402C913.64,402.09 912.95,402.15 912.26,402.19C911.26,402.3 910.15,402.34 909.08,402.36C908.24,402.36 907.4,402.41 906.56,402.41C905.72,402.41 904.89,402.41 904.05,402.36C903.44,402.36 902.84,402.36 902.2,402.28C872.2,400.88 840.65,384.97 814.42,361.78C794.65,344.31 777.88,322.71 767.13,300.08C766.44,298.65 765.79,297.21 765.13,295.77L765.61,290.58C761.471,269.983 752.448,250.677 739.3,234.29C737.14,222.99 729.93,204.74 708.46,179.71C708.93,178.79 709.46,177.89 709.96,177.02L709.86,177.73C709.879,177.668 709.902,177.608 709.93,177.55C710.07,177.18 710.23,176.8 710.39,176.44C710.55,176.08 710.39,176.44 710.39,176.44C710.65,175.77 710.96,175.09 711.28,174.44C711.43,174.1 711.59,173.77 711.76,173.44C711.93,173.11 712.02,172.89 712.16,172.63L712.25,172.46C712.93,171.15 713.67,169.89 714.44,168.65C714.398,168.615 714.361,168.574 714.33,168.53C714.01,168.24 713.69,167.92 713.33,167.6C713.64,167.91 713.97,168.22 714.33,168.52L714.45,168.64C716.502,165.338 718.888,162.255 721.57,159.44C727.42,153.3 729.31,145.28 737.41,142.23C739.05,141.603 740.717,141.053 742.41,140.58L742.55,140.58L743.09,141.13C743.27,141.33 743.44,141.53 743.61,141.74C746.043,144.686 747.319,148.421 747.2,152.24C747.159,153.988 746.821,155.716 746.2,157.35C746.57,157.44 746.94,157.54 747.3,157.65C748.75,158.06 755.48,161.74 756.85,162.33C756.856,162.373 756.856,162.417 756.85,162.46L756.91,162.69C758.187,163.226 759.369,163.966 760.41,164.88L762,165C797.46,170.33 804.35,187.42 810.34,222.65C810.693,219.593 810.87,216.518 810.87,213.44C810.87,174.44 803.87,152.58 766.78,145.96C766.5,145.9 766.23,145.86 765.95,145.82L765.32,146.82C765.32,146.47 765.37,146.11 765.38,145.75L765.38,145.47C765.424,144.226 765.387,142.98 765.27,141.74C764.815,135.993 762.837,130.469 759.54,125.74C756.976,122.033 753.677,118.891 749.85,116.51L749.8,116.51C749.35,116.23 744.63,115.95 744.16,115.68C742.775,114.915 741.338,114.246 739.86,113.68C739.59,113.57 739.32,113.48 739.06,113.39L737.75,113.15C737.643,113.117 737.532,113.1 737.42,113.1L737.31,113.1C737.38,112.56 737.44,112.01 737.51,111.47C737.99,107.32 738.29,103.08 738.4,98.78C738.95,76.12 743.4,56.58 734.27,41.02C719.14,15.26 687.62,0.36 657.46,0L657.46,0.15C627.78,0.84 596.72,15.64 581.77,41C572.57,56.59 577.01,76.16 577.56,98.88C577.667,103.06 577.95,107.16 578.41,111.18L578.68,113.4C578.42,113.49 578.15,113.58 577.88,113.69C576.307,114.28 574.782,114.992 573.32,115.82C572.93,116.03 572.56,116.26 572.19,116.49C568.34,118.87 560.79,122.03 558.24,125.72C554.947,130.452 552.97,135.974 552.51,141.72C552.393,142.96 552.356,144.206 552.4,145.45L552.4,145.73L552.46,146.8L551.83,145.8C551.55,145.8 551.28,145.88 551,145.94C513.86,152.56 506.91,173.33 506.91,212.35C506.909,215.431 507.086,218.509 507.44,221.57C513.44,186.33 520.32,170.31 555.78,164.98L557.25,164.76C558.293,163.848 559.474,163.109 560.75,162.57L560.81,162.34L560.81,162.21C562.18,161.62 568.91,157.94 570.36,157.53C570.72,157.42 571.1,157.32 571.46,157.23C570.839,155.596 570.501,153.868 570.46,152.12C570.341,148.301 571.617,144.566 574.05,141.62C574.23,141.41 574.39,141.21 574.57,141.01L575.11,140.46L575.26,140.46C576.97,140.93 578.63,141.46 580.26,142.11C588.35,145.16 590.26,153.18 596.09,159.32C598.775,162.135 601.164,165.218 603.22,168.52L603.33,168.4L603.21,168.52C603.99,169.76 604.72,171.02 605.4,172.33L605.49,172.5C605.63,172.76 605.77,173.04 605.89,173.31C606.01,173.58 606.22,173.97 606.37,174.31C606.69,174.97 607,175.65 607.26,176.31C607.42,176.67 607.58,177.05 607.71,177.42C607.738,177.478 607.761,177.538 607.78,177.6C608.03,178.24 608.28,178.88 608.51,179.53C586.51,205.12 579.51,223.63 577.51,234.88L577.42,235.21L577.02,234.62C563.78,251.046 554.695,270.426 550.54,291.11L551.02,296.3C550.38,297.75 549.74,299.18 549.02,300.61C538.26,323.24 521.49,344.84 501.72,362.31C475.57,385.6 444,401.51 414,402.91L412.15,403L407.12,403C406.05,403 405,402.93 403.95,402.83C403.26,402.78 402.57,402.72 401.89,402.64C364.518,398.7 335.82,366.816 335.82,329.237C335.82,313.316 340.971,297.814 350.5,285.06C336.072,298.259 326.304,315.786 322.67,335C321.625,340.573 321.096,346.23 321.09,351.9C321.098,399.781 359.029,439.827 406.84,442.43C407.6,442.43 408.37,442.49 409.13,442.51C409.89,442.53 410.87,442.51 411.75,442.51L414.13,442.51C425.98,442.13 438.68,438.84 451.65,433.31C487.99,417.84 526.22,384.75 552.56,348.39C561.826,335.824 569.687,322.28 576,308L576,312.45C576.19,342.45 598.14,439.75 610.43,439.37C611.439,439.327 612.431,439.089 613.35,438.67C613.142,436.651 612.808,434.647 612.35,432.67C612.808,434.647 613.142,436.651 613.35,438.67C613.691,438.531 614.025,438.374 614.35,438.2C614.35,437.86 614.22,437.3 614.07,436.56C594.62,323.77 602.92,296.4 602.92,296.4C603.07,276.97 617.18,263.46 617.18,263.46C616.778,262.258 616.238,261.107 615.57,260.03C613.11,254.264 611.845,248.059 611.85,241.79L611.85,241.56C611.85,234.56 618.76,227.96 621.54,222.01C622.11,220.8 622.72,219.61 623.39,218.47C623.441,218.37 623.497,218.273 623.56,218.18C631.56,204.48 641.11,206.92 658.11,206.75L658.93,206.75C675.93,206.92 685.43,204.48 693.48,218.18C694.21,219.42 694.87,220.69 695.48,222.01C698.26,227.96 705.14,234.58 705.18,241.56L705.18,241.79C705.185,247.651 704.078,253.461 701.92,258.91C700.871,260.284 700.063,261.826 699.53,263.47C698.997,265.114 713.64,276.98 713.79,296.41L713.69,296.41C713.69,296.41 720.24,319.41 718.18,372.41C718.18,372.41 718.49,370.99 718.96,368.57C718.86,369.88 718.74,371.17 718.6,372.41C718.93,372.59 719.25,372.75 719.6,372.89C720.518,373.314 721.51,373.555 722.52,373.6C722.726,373.615 722.934,373.615 723.14,373.6C734.9,373 740.83,342 741.02,312.53L741.02,308.95C747.218,322.648 754.829,335.662 763.73,347.78C790.07,384.14 828.3,417.23 864.65,432.7C877.65,438.22 890.31,441.52 902.16,441.9L907.17,441.9C908.03,441.9 908.7,441.9 909.45,441.81C947.634,439.717 980.576,413.692 991.45,377.03C993.779,369.85 995.216,362.411 995.73,354.88C996.244,347.349 995.44,355.51 995,356.72ZM634.62,144.14C625.251,128.824 610.221,117.794 592.8,113.45C575.379,109.106 586.52,95.34 595.66,86.91C604.8,78.48 620.96,81.29 629.86,72.39C638.76,63.49 671.32,37.87 707.79,63.49C707.79,63.49 724.64,74.73 724.56,84.57C724.48,94.41 724.56,113.45 724.56,113.45C724.56,113.45 695.62,125.66 686.63,144.14C686.63,144.14 657.63,138.88 634.62,144.14ZM714.31,295.94C714.22,296.09 714.15,296.24 714.06,296.39L713.74,296.39L714.31,295.94ZM719.6,364.94L719.6,366.16C719.59,365.75 719.59,365.34 719.6,364.94Z" style="fill:rgb(45,45,45);fill-rule:nonzero;"/>
                                <path d="M1049.25,324.84C1049.22,265.682 1000.53,217.022 941.37,217.022C894.698,217.022 853.076,247.31 838.72,291.72C857.834,257.905 893.791,236.926 932.635,236.926C991.816,236.926 1040.52,285.625 1040.52,344.806C1040.52,356.044 1038.76,367.214 1035.31,377.91C1044.47,361.727 1049.28,343.438 1049.25,324.84Z" style="fill:rgb(45,45,45);fill-rule:nonzero;"/>
                                <path d="M683.7,142.34C683.711,142.308 683.711,142.272 683.7,142.24L683.61,142.24C683.643,142.271 683.673,142.304 683.7,142.34Z" style="fill:rgb(45,45,45);fill-rule:nonzero;"/>
                                <path d="M622.61,263.67C622.61,263.67 656.23,239.39 691.25,263.67C691.25,263.67 658.92,227.37 622.61,263.67Z" style="fill:rgb(45,45,45);fill-rule:nonzero;"/>
                                <path d="M54.83,477.66L54.83,490.5L12.9,490.5L12.9,519.66L44.33,519.66L44.33,528.48C44.33,530.674 42.524,532.48 40.33,532.48L16.92,532.48C14.726,532.48 12.92,534.286 12.92,536.48L12.92,570.48C12.92,572.674 11.114,574.48 8.92,574.48L4,574.48C1.806,574.48 0,572.674 0,570.48L0,477.66L54.83,477.66Z" style="fill:black;fill-rule:nonzero;"/>
                                <path d="M77.6,477.86L77.6,557.51C77.6,559.704 79.406,561.51 81.6,561.51L115.49,561.51C117.684,561.51 119.49,563.316 119.49,565.51L119.49,570.17C119.49,572.364 117.684,574.17 115.49,574.17L68.72,574.17C66.526,574.17 64.72,572.364 64.72,570.17L64.72,477.86L77.6,477.86Z" style="fill:black;fill-rule:nonzero;"/>
                                <path d="M180.19,480.65C186.139,483.212 191.532,486.908 196.07,491.53C200.686,496.039 204.367,501.415 206.9,507.35C216.88,532.283 204.914,561.025 180.19,571.51C168.138,576.255 154.722,576.255 142.67,571.51C136.727,569.03 131.348,565.369 126.86,560.75C122.209,556.262 118.544,550.853 116.1,544.87C111.342,532.841 111.342,519.439 116.1,507.41C121.231,495.441 130.738,485.866 142.67,480.65C154.72,475.892 168.14,475.892 180.19,480.65ZM147.66,492.76C143.344,494.636 139.426,497.321 136.12,500.67C125.969,510.947 122.858,526.337 128.22,539.75C130.024,544.121 132.714,548.07 136.12,551.35C139.37,554.751 143.303,557.426 147.66,559.2C152.045,560.981 156.737,561.882 161.47,561.85C175.908,561.718 188.964,553.022 194.65,539.75C196.494,535.403 197.42,530.722 197.37,526C197.401,521.283 196.476,516.609 194.65,512.26C192.763,507.949 190.106,504.018 186.81,500.66C183.45,497.316 179.491,494.633 175.14,492.75C170.804,490.971 166.157,490.07 161.47,490.1C156.737,490.071 152.044,490.975 147.66,492.76Z" style="fill:black;fill-rule:nonzero;"/>
                                <path d="M286.14,574.23L281,574.23C279.418,574.237 277.975,573.305 277.33,571.86L272.33,560.73C271.69,559.285 270.251,558.349 268.67,558.35L232.93,558.35C231.346,558.345 229.902,559.282 229.26,560.73L224.26,571.86C223.617,573.301 222.178,574.233 220.6,574.23L215.47,574.23C215.46,574.23 215.45,574.23 215.44,574.23C213.246,574.23 211.44,572.424 211.44,570.23C211.44,569.683 211.553,569.142 211.77,568.64L250.77,476.95L289.77,568.64C289.987,569.142 290.1,569.683 290.1,570.23C290.1,572.409 288.319,574.208 286.14,574.23ZM241.11,548L260.48,548C260.486,548 260.492,548 260.498,548C262.693,548 264.498,546.194 264.498,544C264.498,543.471 264.394,542.948 264.19,542.46C262.35,538.027 260.513,533.36 258.68,528.46C256.067,521.5 253.463,514.973 250.87,508.88C248.243,514.98 245.597,521.507 242.93,528.46C241.07,533.333 239.223,538 237.39,542.46C237.186,542.948 237.082,543.471 237.082,544C237.082,546.194 238.887,548 241.082,548C241.091,548 241.101,548 241.11,548Z" style="fill:black;fill-rule:nonzero;"/>
                                <path d="M282,477.86L346.36,477.86C346.36,484.865 340.595,490.63 333.59,490.63L320.59,490.63L320.59,570.21C320.59,572.404 318.784,574.21 316.59,574.21L311.73,574.21C309.536,574.21 307.73,572.404 307.73,570.21L307.73,490.63L294.73,490.63C287.74,490.608 282,484.85 282,477.86Z" style="fill:black;fill-rule:nonzero;"/>
                                <path d="M356.23,477.86L369.13,477.86L369.13,570.21C369.13,572.404 367.324,574.21 365.13,574.21L360.27,574.21C358.076,574.21 356.27,572.404 356.27,570.21L356.23,477.86Z" style="fill:black;fill-rule:nonzero;"/>
                                <path d="M438.88,535.77C439.636,536.584 440.699,537.047 441.81,537.047C444.005,537.047 445.81,535.242 445.81,533.047C445.81,533.031 445.81,533.016 445.81,533L445.81,477.66L458.71,477.66L458.71,565.83C458.71,565.843 458.71,565.856 458.71,565.869C458.71,568.063 456.905,569.869 454.71,569.869C453.589,569.869 452.517,569.397 451.76,568.57L395.76,508.9L395.76,570.47C395.76,572.664 393.954,574.47 391.76,574.47L386.9,574.47C384.706,574.47 382.9,572.664 382.9,570.47L382.9,476.89L438.88,535.77Z" style="fill:black;fill-rule:nonzero;"/>
                                <path d="M514.58,477.21L517.49,477.21C523.992,477.172 530.434,478.462 536.42,481C539.359,482.282 542.177,483.825 544.84,485.61C546.047,486.43 547.473,487.487 549.12,488.78L548.12,489.84C543.735,494.197 537.086,495.417 531.44,492.9L531.35,492.9C527.015,491.103 522.362,490.202 517.67,490.25C512.957,490.182 508.28,491.084 503.93,492.9C499.577,494.741 495.634,497.43 492.33,500.81C489.002,504.142 486.341,508.08 484.49,512.41C482.72,516.774 481.816,521.441 481.83,526.15C481.737,535.669 485.531,544.827 492.33,551.49C495.616,554.89 499.564,557.582 503.93,559.4C511.843,562.6 520.634,562.923 528.76,560.31C532.274,559.196 535.579,557.506 538.54,555.31C540.98,553.487 543.183,551.367 545.1,549C547.036,546.69 548.669,544.143 549.96,541.42C550.219,540.88 550.353,540.289 550.353,539.69C550.353,537.496 548.548,535.69 546.353,535.69C546.346,535.69 546.338,535.69 546.33,535.69L524.56,535.69C522.366,535.69 520.56,533.884 520.56,531.69L520.56,523.69L566.25,523.69C566.478,530.14 565.533,536.578 563.46,542.69C561.127,549.533 557.198,555.724 552,560.75C547.446,565.321 542.054,568.975 536.12,571.51C517.874,579.18 496.68,574.9 482.84,560.75C478.197,556.285 474.535,550.9 472.09,544.94C467.332,532.866 467.332,519.424 472.09,507.35C477.24,495.407 486.742,485.858 498.66,480.65C503.685,478.557 509.034,477.349 514.47,477.08L514.58,477.21Z" style="fill:black;fill-rule:nonzero;"/>
                                <path d="M725.71,543.87L769.46,476.87L769.46,570.26C769.46,572.454 767.654,574.26 765.46,574.26L760.6,574.26C758.406,574.26 756.6,572.454 756.6,570.26L756.6,519.53L725.75,566.92C725.015,568.064 723.745,568.757 722.385,568.757C721.025,568.757 719.755,568.064 719.02,566.92L688.16,519.53L688.16,570.28C688.16,572.474 686.354,574.28 684.16,574.28L679.29,574.28C677.096,574.28 675.29,572.474 675.29,570.28L675.29,476.89L719.04,543.89C719.781,545.002 721.032,545.671 722.368,545.671C723.713,545.671 724.971,544.993 725.71,543.87Z" style="fill:black;fill-rule:nonzero;"/>
                                <path d="M856.08,574.3L851,574.3C849.419,574.301 847.98,573.365 847.34,571.92L842.34,560.79C841.695,559.345 840.252,558.413 838.67,558.42L802.87,558.42C801.288,558.413 799.845,559.345 799.2,560.79L794.2,571.92C793.558,573.368 792.114,574.305 790.53,574.3L785.41,574.3C785.399,574.3 785.387,574.3 785.376,574.3C783.182,574.3 781.376,572.494 781.376,570.3C781.376,569.749 781.49,569.205 781.71,568.7L820.71,477.02L859.71,568.7C859.93,569.205 860.044,569.749 860.044,570.3C860.044,572.481 858.261,574.28 856.08,574.3ZM820.71,548.05L830.42,548.05C830.428,548.05 830.435,548.05 830.443,548.05C832.637,548.05 834.443,546.244 834.443,544.05C834.443,543.518 834.336,542.991 834.13,542.5C832.29,538.073 830.453,533.407 828.62,528.5C826,521.54 823.397,515.017 820.81,508.93C818.143,515.017 815.497,521.54 812.87,528.5C811.01,533.38 809.163,538.047 807.33,542.5C807.126,542.988 807.022,543.511 807.022,544.04C807.022,546.234 808.827,548.04 811.022,548.04C811.028,548.04 811.034,548.04 811.04,548.04L820.71,548.05Z" style="fill:black;fill-rule:nonzero;"/>
                                <path d="M922.51,543.87L966.26,476.87L966.26,570.26C966.26,572.454 964.454,574.26 962.26,574.26L957.4,574.26C955.206,574.26 953.4,572.454 953.4,570.26L953.4,519.53L922.54,566.92C921.805,568.064 920.535,568.757 919.175,568.757C917.815,568.757 916.545,568.064 915.81,566.92L884.96,519.53L884.96,570.28C884.96,572.474 883.154,574.28 880.96,574.28L876.1,574.28C873.906,574.28 872.1,572.474 872.1,570.28L872.1,476.89L915.85,543.89C916.592,544.998 917.84,545.664 919.173,545.664C920.515,545.664 921.77,544.989 922.51,543.87Z" style="fill:black;fill-rule:nonzero;"/>
                                <path d="M1030.5,543.87L1074.26,476.87L1074.26,570.26C1074.26,572.454 1072.45,574.26 1070.26,574.26L1065.4,574.26C1063.21,574.26 1061.4,572.454 1061.4,570.26L1061.4,519.53L1030.55,566.92C1029.82,568.068 1028.54,568.765 1027.18,568.765C1025.82,568.765 1024.54,568.068 1023.81,566.92L992.96,519.53L992.96,570.28C992.96,572.474 991.154,574.28 988.96,574.28L984,574.28C981.806,574.28 980,572.474 980,570.28L980,476.89L1023.75,543.89C1024.49,545.037 1025.76,545.733 1027.12,545.733C1028.49,545.733 1029.77,545.029 1030.5,543.87Z" style="fill:black;fill-rule:nonzero;"/>
                                <path d="M1151.79,480.71C1157.73,483.285 1163.13,486.983 1167.67,491.6C1177.07,500.635 1182.3,513.177 1182.12,526.21C1182.3,539.243 1177.06,551.782 1167.67,560.82C1153.62,574.683 1132.58,578.916 1114.26,571.57C1108.32,569.093 1102.94,565.436 1098.45,560.82C1093.81,556.327 1090.14,550.92 1087.69,544.94C1082.94,532.908 1082.94,519.512 1087.69,507.48C1092.82,495.505 1102.32,485.926 1114.26,480.71C1126.32,475.965 1139.73,475.965 1151.79,480.71ZM1119.25,492.83C1114.93,494.7 1111.02,497.386 1107.72,500.74C1104.34,504.041 1101.65,507.985 1099.81,512.34C1098.06,516.706 1097.18,521.375 1097.22,526.08C1097.16,530.787 1098.04,535.458 1099.81,539.82C1101.61,544.193 1104.31,548.143 1107.72,551.42C1110.96,554.82 1114.89,557.492 1119.25,559.26C1123.63,561.043 1128.33,561.947 1133.06,561.92C1147.5,561.788 1160.55,553.092 1166.24,539.82C1168.09,535.478 1169.01,530.799 1168.96,526.08C1169,521.363 1168.07,516.688 1166.24,512.34C1164.36,508.027 1161.7,504.095 1158.4,500.74C1155.04,497.393 1151.08,494.709 1146.73,492.83C1142.39,491.046 1137.75,490.142 1133.06,490.17C1128.33,490.143 1123.63,491.047 1119.25,492.83Z" style="fill:black;fill-rule:nonzero;"/>
                                <path d="M1217.07,477.92L1238.72,477.92C1238.72,484.907 1232.99,490.663 1226,490.69L1213,490.69L1213,570.28C1213,572.474 1211.19,574.28 1209,574.28L1204.14,574.28C1201.95,574.28 1200.14,572.474 1200.14,570.28L1200.14,490.69L1187.14,490.69C1180.13,490.69 1174.37,484.925 1174.37,477.92L1217.08,477.92L1217.07,477.92Z" style="fill:black;fill-rule:nonzero;"/>
                                <path d="M1261.42,477.92L1261.42,519.73L1304.42,519.73L1304.42,477.92L1317.25,477.92L1317.25,570.28C1317.25,572.474 1315.44,574.28 1313.25,574.28L1308.46,574.28C1306.27,574.28 1304.46,572.474 1304.46,570.28L1304.46,536.51C1304.46,534.316 1302.65,532.51 1300.46,532.51L1265.53,532.51C1263.34,532.51 1261.53,534.316 1261.53,536.51L1261.53,570.28C1261.53,572.474 1259.72,574.28 1257.53,574.28L1252.74,574.28C1250.55,574.28 1248.74,572.474 1248.74,570.28L1248.74,477.92L1261.42,477.92Z" style="fill:black;fill-rule:nonzero;"/>
                            </g>
                        </g>
                    </g>
                </g>
            </g>
        </g>
    </g>
</svg>
